<?xml version="1.0" standalone="no"?><!DOCTYPE svg PUBLIC "-//W3C//DTD SVG 1.1//EN" "http://www.w3.org/Graphics/SVG/1.1/DTD/svg11.dtd"><svg class="icon" width="200px" height="200.00px" viewBox="0 0 1024 1024" version="1.1" xmlns="http://www.w3.org/2000/svg"><path fill="#ee8a36" d="M309.705143 158.72V108.251429h60.416V158.72a30.208 30.208 0 0 1-60.379429 0zM682.075429 158.72V108.251429h60.379428V158.72a30.208 30.208 0 0 1-60.342857 0z"  /><path fill="#ee8a36" d="M969.197714 170.422857v153.380572H81.170286V170.422857a62.171429 62.171429 0 0 1 62.171428-62.208h140.470857v50.541714a56.100571 56.100571 0 0 0 112.201143 0V108.214857h260.169143v50.541714a56.100571 56.100571 0 0 0 112.201143 0V108.214857h138.605714a62.354286 62.354286 0 0 1 62.208 62.171429zM969.197714 375.625143v561.810286a62.171429 62.171429 0 0 1-62.171428 62.171428H143.378286a62.061714 62.061714 0 0 1-62.171429-62.171428V375.588571h887.990857zM346.532571 757.869714H281.472a25.929143 25.929143 0 0 0 0 51.821715h65.060571a25.929143 25.929143 0 0 0 0-51.821715z m213.76 0h-65.024a25.929143 25.929143 0 0 0 0 51.821715h65.024a25.929143 25.929143 0 0 0 0-51.821715z m213.796572 0H709.065143a25.929143 25.929143 0 0 0 0 51.821715h65.024a25.929143 25.929143 0 1 0 0-51.821715z m-427.556572-193.097143H281.472a25.929143 25.929143 0 0 0 0 51.858286h65.060571a25.929143 25.929143 0 0 0 0-51.821714z m213.76 0h-65.024a25.929143 25.929143 0 0 0 0 51.858286h65.024a25.929143 25.929143 0 0 0 0-51.821714z m213.796572 0H709.065143a25.929143 25.929143 0 0 0 0 51.858286h65.024a25.929143 25.929143 0 1 0 0-51.821714z"  /><path fill="#ee8a36" d="M370.084571 54.564571V158.72a30.208 30.208 0 1 1-60.342857 0V54.564571a30.208 30.208 0 1 1 60.342857 0zM742.491429 54.564571V158.72a30.208 30.208 0 1 1-60.379429 0V54.564571a30.208 30.208 0 0 1 60.342857 0z"  /></svg>