<?xml version="1.0" standalone="no"?><!DOCTYPE svg PUBLIC "-//W3C//DTD SVG 1.1//EN" "http://www.w3.org/Graphics/SVG/1.1/DTD/svg11.dtd"><svg class="icon" width="200px" height="200.00px" viewBox="0 0 1024 1024" version="1.1" xmlns="http://www.w3.org/2000/svg"><path d="M896 85.333333h-170.666667V42.666667a42.666667 42.666667 0 0 0-85.333333 0v42.666666H384V42.666667a42.666667 42.666667 0 0 0-85.333333 0v42.666666H128a128 128 0 0 0-128 128v682.666667a128 128 0 0 0 128 128h768a128 128 0 0 0 128-128V213.333333a128 128 0 0 0-128-128zM128 170.666667h170.666667v42.666666a42.666667 42.666667 0 0 0 85.333333 0V170.666667h256v42.666666a42.666667 42.666667 0 0 0 85.333333 0V170.666667h170.666667a42.666667 42.666667 0 0 1 42.666667 42.666666v128H85.333333V213.333333a42.666667 42.666667 0 0 1 42.666667-42.666666z m768 768H128a42.666667 42.666667 0 0 1-42.666667-42.666667V426.666667h853.333334v469.333333a42.666667 42.666667 0 0 1-42.666667 42.666667z" fill="#333333" /><path d="M663.04 559.786667l-213.333333 213.333333-90.026667-92.586667a42.666667 42.666667 0 0 0-60.16 0 42.666667 42.666667 0 0 0 0 60.586667l120.746667 120.746667a42.666667 42.666667 0 0 0 30.293333 12.8 42.666667 42.666667 0 0 0 30.293333-12.8l241.493334-241.493334a42.666667 42.666667 0 0 0 0-60.586666 42.666667 42.666667 0 0 0-59.306667 0z" fill="#333333" /></svg>