<?xml version="1.0" standalone="no"?><!DOCTYPE svg PUBLIC "-//W3C//DTD SVG 1.1//EN" "http://www.w3.org/Graphics/SVG/1.1/DTD/svg11.dtd"><svg class="icon" width="200px" height="200.00px" viewBox="0 0 1024 1024" version="1.1" xmlns="http://www.w3.org/2000/svg"><path d="M806.592 992H217.152c-76.704 0-141.536-58.272-150.72-135.584L0.416 297.6a52.224 52.224 0 0 1 21.76-48.992 50.816 50.816 0 0 1 52.896-3.136l202.016 107.712 192.064-297.728A51.072 51.072 0 0 1 511.936 32c17.28 0 33.44 8.832 42.848 23.456l192.16 297.856 202.016-107.712a50.816 50.816 0 0 1 52.896 3.136c15.68 10.88 24.064 29.824 21.76 48.96L957.44 856.576C948.16 933.728 883.456 992 806.592 992zM113.632 383.36l54.528 460.736a49.664 49.664 0 0 0 49.12 44.128h589.44c24.96 0 46.048-18.912 49.12-44.128l54.528-460.704-156.896 83.68a50.816 50.816 0 0 1-66.656-17.536l-174.88-270.816-174.752 270.944c-14.432 22.4-43.296 29.952-66.656 17.536l-156.896-83.84z" fill="#FCBA29" /><path d="M511.936 792.576a103.04 103.04 0 0 1-71.36-28.8l-113.248-108.992a52.384 52.384 0 0 1-1.824-73.376 50.72 50.72 0 0 1 72.384-1.856l113.28 109.024 114.848-109.024a50.72 50.72 0 0 1 72.384 1.856c19.456 20.8 18.656 53.632-1.856 73.376l-113.28 108.992a103.04 103.04 0 0 1-71.328 28.8z" fill="#FCBA29" /></svg>