<?xml version="1.0" standalone="no"?><!DOCTYPE svg PUBLIC "-//W3C//DTD SVG 1.1//EN" "http://www.w3.org/Graphics/SVG/1.1/DTD/svg11.dtd"><svg class="icon" width="200px" height="200.00px" viewBox="0 0 1024 1024" version="1.1" xmlns="http://www.w3.org/2000/svg"><path fill="#ff9900" d="M512 1024c-201.947429 0-365.714286-85.942857-365.714286-192V723.968c0 106.057143 163.766857 172.032 365.714286 172.032s365.714286-65.974857 365.714286-172.032v108.032C877.714286 938.057143 713.947429 1024 512 1024z m0-192c-201.947429 0-365.714286-85.942857-365.714286-192V531.968c0 106.057143 163.766857 172.032 365.714286 172.032s365.714286-65.974857 365.714286-172.032V640c0 106.057143-163.766857 192-365.714286 192zM512 640c-201.947429 0-365.714286-85.942857-365.714286-192V339.968C146.285714 446.025143 310.052571 512 512 512s365.714286-65.974857 365.714286-172.032v108.032c0 106.057143-163.766857 192-365.714286 192z m0-192C310.125714 448 146.285714 362.057143 146.285714 256v-64C146.285714 85.942857 310.052571 0 512 0s365.714286 85.942857 365.714286 192V256c0 106.057143-163.766857 192-365.714286 192z"  /></svg>