<?xml version="1.0" standalone="no"?><!DOCTYPE svg PUBLIC "-//W3C//DTD SVG 1.1//EN" "http://www.w3.org/Graphics/SVG/1.1/DTD/svg11.dtd"><svg class="icon" width="200px" height="199.22px" viewBox="0 0 1028 1024" version="1.1" xmlns="http://www.w3.org/2000/svg"><path fill="#ff9900" d="M996.674 116.656c-21.792-19.536-42.234-27.862-68.366-27.862H98.968c-25.082 0-47.45 9.11-69.044 28.54-19.086 21.098-27.98 43.304-27.98 69.848V300.14c0 27.058 9.262 49.422 28.31 68.37 20.284 20.194 42.758 29.996 68.716 29.996h115.346v470.046c0 5.016 4.092 9.112 9.152 9.112h78.718v74.684c0 5.036 4.096 9.112 9.154 9.112h492.47c5.062 0 9.156-4.076 9.156-9.112v-553.84H928.31c27.042 0 47.59-8.968 68.366-29.66 20.518-18.376 30.494-40.848 30.494-68.708V187.182c-0.002-27.434-9.576-49.746-30.496-70.526zM49.546 300.14V187.182c0-12.276 4.666-22.702 15.116-34.978 11.352-9.698 22.258-14.214 34.308-14.214h115.346v211.342H98.968c-12.058 0-22.962-4.52-33.798-13.736-10.074-10.034-15.624-22.632-15.624-35.456zM265.57 828.468v-690.48h402.768v690.478H265.57z m86.052 83.794v-34.6h355.164c5.058 0 9.156-4.096 9.156-9.112V137.988h47.596v774.274H351.622z m461.342-774.274h115.344c13.648 0 24.386 4.358 33.798 13.732 11.102 11.048 15.626 21.316 15.626 35.46v112.958c0 14.658-5.086 26.418-15.626 35.456-9.53 9.5-19.954 13.736-33.798 13.736H812.964V137.988z"  /><path fill="#ff9900" d="M571.308 305.6H532.86a9.141 9.141 0 0 0-8.036 4.75l-43.964 80.186a818.016 818.016 0 0 0-13.712 26.546c-11.664-24.358-29.926-58.998-56.246-106.75a9.164 9.164 0 0 0-8.028-4.732H360.77c-3.28 0-6.3 1.742-7.936 4.572s-1.618 6.318 0.024 9.128l68.862 117.476h-46.306c-5.062 0-9.156 4.072-9.156 9.106v29.146c0 5.034 4.094 9.106 9.156 9.106h64.076v38.27h-64.076c-5.062 0-9.156 4.054-9.156 9.11v30.958c0 5.054 4.094 9.11 9.156 9.11h64.076v47.378c0 5.036 4.096 9.11 9.154 9.11h36.616c5.06 0 9.152-4.074 9.152-9.11v-47.378h60.42c5.062 0 9.156-4.054 9.156-9.11v-30.958c0-5.054-4.094-9.11-9.156-9.11h-60.42v-38.27h60.42c5.062 0 9.156-4.072 9.156-9.106v-29.146c0-5.034-4.094-9.106-9.156-9.106h-44.48L579.218 319.3c1.646-2.812 1.664-6.3 0.028-9.128s-4.656-4.572-7.938-4.572z"  /></svg>