<?xml version="1.0" standalone="no"?><!DOCTYPE svg PUBLIC "-//W3C//DTD SVG 1.1//EN" "http://www.w3.org/Graphics/SVG/1.1/DTD/svg11.dtd"><svg class="icon" width="200px" height="200.00px" viewBox="0 0 1024 1024" version="1.1" xmlns="http://www.w3.org/2000/svg"><path d="M512 512m-512 0a512 512 0 1 0 1024 0 512 512 0 1 0-1024 0Z" fill="#FE830C" /><path d="M803.2 411.3h-57.5c-2.6 0-5.2 0.7-7.5 2.1l-25.9-78.9c-8.3-44.9-39.6-66.5-78-66.5H390.4c-44.1 0-70.9 29-78 66.5l-26 79.1c-2.4-1.5-5.2-2.3-8-2.3h-57.6c-8.9 0-16.1 7.3-16 16.2v14.1c0 8.9 7.1 16.1 16 16.2l21.8 3.8c-6.9 13.6-10.8 29.1-10.8 47.2l-8 93.1c0 2.8 0.2 5.5 0.5 8.2-0.3 1.7-0.5 3.5-0.5 5.2v112c-0.1 15.9 12.7 28.8 28.6 28.9H296c15.9-0.1 28.6-13 28.6-28.8v-36h375.3v36c-0.1 15.9 12.7 28.8 28.6 28.9h43.7c15.9-0.1 28.7-13 28.6-28.8v-112c0-1.8-0.2-3.5-0.5-5.2 0.3-2.7 0.5-5.5 0.5-8.2l-8.1-93.1c0-18.1-3.9-33.6-10.8-47.3l21.3-3.7c8.9 0 16-7.3 16-16.2v-14c0.1-9.2-7.1-16.4-16-16.5z m-471.6-16.6l19-51.2 0.3-1.2c1.9-10.4 6.1-12.2 12.4-20.2h298.3c6.3 8.2 10.3 10.3 12 20.1l19.3 52.5 7.1 28.5c-1.6 20.9-26.4 37.4-47.1 37.4H371.7c-20.7 0-45.6-16.5-47.1-37.4l7-28.5zM345 638.2c-23.9 0-43.3-19.6-43.3-43.7s19.4-43.7 43.3-43.7 43.3 19.5 43.3 43.7-19.4 43.7-43.3 43.7z m241.9-32.3c0 7.1-5.7 13-12.9 13H452.5c-7.1 0-12.9-5.9-12.9-13v-36.6c0-7.1 5.7-12.9 12.9-13H574c7.1 0 12.9 5.8 12.9 13v36.6z m92.7 32.2c-23.9 0-43.3-19.6-43.3-43.7s19.4-43.7 43.3-43.7 43.3 19.5 43.3 43.7-19.4 43.7-43.3 43.7z" fill="#FFFFFF" /></svg>