<?xml version="1.0" standalone="no"?><!DOCTYPE svg PUBLIC "-//W3C//DTD SVG 1.1//EN" "http://www.w3.org/Graphics/SVG/1.1/DTD/svg11.dtd"><svg t="1763387266370" class="icon" viewBox="0 0 1777 1024" version="1.1" xmlns="http://www.w3.org/2000/svg" p-id="29934" xmlns:xlink="http://www.w3.org/1999/xlink" width="538.28125" height="200"><path d="M0 0m330.092253 0l1117.235319 0q330.092253 0 330.092253 330.092253l0 0q0 330.092253-330.092253 330.092253l-1117.235319 0q-330.092253 0-330.092253-330.092253l0 0q0-330.092253 330.092253-330.092253Z" fill="#3D3D3D" p-id="29935"></path><path d="M859.052393 301.551969c0.761751-10.918436-2.132904-19.297701-8.683965-25.290145-6.449495-5.941661-16.656963-8.937883-30.571621-8.937882-9.242583 0-17.114014 1.218802-23.665076 3.605623a36.208581 36.208581 0 0 0-15.43816 9.801201 28.33715 28.33715 0 0 0-7.10968 14.473275 20.008669 20.008669 0 0 0 0.761752 11.527837 21.329038 21.329038 0 0 0 7.109679 8.937883c3.402489 2.589955 7.71908 4.875209 12.797423 6.754195 5.179909 1.92977 11.020003 3.605623 17.469497 5.078343l24.223693 5.78931c14.067008 3.148572 26.204247 7.363596 36.513282 12.695856 10.359818 5.179909 18.789867 11.477054 25.239362 18.891433 6.449495 7.312813 10.867653 15.742861 13.254473 25.239362 2.437604 9.4965 2.589955 20.211803 0.609401 31.993557-3.097789 18.6883-10.461385 34.685078-22.090789 48.091902a110.555513 110.555513 0 0 1-45.298814 30.723971c-18.586733 7.109679-40.118905 10.664519-64.799648 10.664519-24.579177 0-45.501948-3.70719-62.768312-11.12157a72.823429 72.823429 0 0 1-37.173466-33.923327c-7.71908-15.082677-9.801201-34.126461-6.246361-57.080568H741.437984a39.763421 39.763421 0 0 0 3.605623 23.766643c3.55484 6.347928 9.039449 11.172353 16.45383 14.422492 7.41438 3.300923 16.352262 4.925992 26.813647 4.925992 9.64885 0 18.078899-1.320369 25.290145-3.910324a43.267477 43.267477 0 0 0 17.418714-10.816869 29.251252 29.251252 0 0 0 8.125348-15.844428 18.53595 18.53595 0 0 0-2.793088-14.320926 32.095124 32.095124 0 0 0-13.813091-10.512168 132.240035 132.240035 0 0 0-25.391712-8.125348l-29.606736-7.160463c-24.376043-5.992444-42.911993-15.488944-55.506282-28.591067-12.543506-13.05134-16.961663-30.825538-13.305257-53.221028 3.047005-18.383599 10.664519-34.431161 22.852541-48.193469 12.188022-13.711524 27.626182-24.376043 46.263698-31.993557 18.789867-7.71908 39.407937-11.578621 61.904994-11.57862 22.852541 0 42.150242 3.910324 57.689969 11.680187 15.692078 7.71908 26.965998 18.586733 33.923327 32.602958 7.008112 13.965441 9.039449 30.26692 6.094011 48.904437h-68.456055z m190.539405-89.175692l30.165354 216.388168h2.437604l102.023898-216.388168h79.933109L1115.356332 507.834236h-95.015786l-50.631073-295.457959h79.882325z m317.751882 0L1318.337676 507.834236h-71.401494l49.056788-295.457959h71.401493zM1363.128656 507.834236l49.056787-295.457959h122.08335c22.090789 0 40.525172 4.265808 55.252365 12.848207 14.727193 8.531615 25.137795 20.516503 31.282589 35.90388 6.144794 15.387377 7.56673 33.212359 4.215024 53.525728-3.300923 20.46572-10.664519 38.341485-22.090789 53.525729-11.375487 15.235027-25.950329 26.965998-43.876878 35.345263a142.39672 142.39672 0 0 1-60.990892 12.543505h-75.159467l9.34415-56.268033h62.057344c10.867653 0 20.211803-1.878987 28.134016-5.586177a48.295036 48.295036 0 0 0 19.196135-15.742861c4.773642-6.754195 7.972998-14.727193 9.4965-23.817426a45.09568 45.09568 0 0 0-1.726637-23.665075 29.454386 29.454386 0 0 0-14.016225-15.590511 53.678079 53.678079 0 0 0-25.950329-5.48461h-35.192913L1434.580933 507.834236h-71.452277z" fill="#E4CA7B" p-id="29936"></path><path d="M710.81558 133.560404l-163.674974-0.15235L384.938351 323.084141V133.560404H254.069468v32.704525h32.755308v360.562307H384.938351l325.877229-393.266832z" fill="#E4CA7B" p-id="29937"></path></svg>