<?xml version="1.0" standalone="no"?><!DOCTYPE svg PUBLIC "-//W3C//DTD SVG 1.1//EN" "http://www.w3.org/Graphics/SVG/1.1/DTD/svg11.dtd"><svg t="1763389834554" class="icon" viewBox="0 0 1911 1024" version="1.1" xmlns="http://www.w3.org/2000/svg" p-id="46154" xmlns:xlink="http://www.w3.org/1999/xlink" width="373.2421875" height="200"><path d="M120.50555633 24.92997529m190.759196 0l1398.9007742 0q190.75919598 0 190.75919599 190.75919597l0 572.2775892q0 190.75919598-190.75919599 190.7591972l-1398.9007742 0q-190.75919598 0-190.759196-190.7591972l0-572.2775892q0-190.75919598 190.759196-190.75919597Z" fill="#2A2A2A" p-id="46155"></path><path d="M192.9611474 23.21066665h755.50179814l-137.91889911 953.79598235H192.9611474a190.75919598 190.75919598 0 0 1-190.75919602-190.7591972V213.96986263a190.75919598 190.75919598 0 0 1 190.75919602-190.75919598z" fill="#404040" p-id="46156"></path><path d="M601.73038513 559.1400039a132.38688274 132.38688274 0 0 1-39.13742928 82.28079998 136.71075749 136.71075749 0 0 1-55.12940747 31.79319933 270.68729965 270.68729965 0 0 1-85.3965331 13.41673016 170.66589479 170.66589479 0 0 1-109.40040018-31.06195592 101.26133991 101.26133991 0 0 1-33.79617004-55.41554615A233.93436132 233.93436132 0 0 1 275.30960599 566.57961182h99.60809356a97.76408774 97.76408774 0 0 0 15.13356339 28.61388048 63.58639866 63.58639866 0 0 0 47.14931453 17.64522452 58.9445918 58.9445918 0 0 0 50.71015361-20.98351064 51.05987796 51.05987796 0 0 0 8.90209588-22.66855167 33.54182482 33.54182482 0 0 0-5.34125804-23.49517421 60.4070786 60.4070786 0 0 0-26.67449427-17.64522576 412.83469433 412.83469433 0 0 0-49.81994291-12.71728023 310.68314494 310.68314494 0 0 1-76.49443839-24.35359024 78.87892816 78.87892816 0 0 1-40.02763751-83.96583973 120.21008641 120.21008641 0 0 1 53.38078197-89.81578818 181.22123703 181.22123703 0 0 1 107.61998002-28.61387929 151.46280186 151.46280186 0 0 1 109.40039898 34.43203429 88.76661267 88.76661267 0 0 1 23.11365518 47.0221419 207.06910753 207.06910753 0 0 1 3.5608391 23.49517542l-96.93746518-0.82662378a46.64062406 46.64062406 0 0 0-48.92973344-35.25865804 51.72753566 51.72753566 0 0 0-40.91784824 16.78680973 36.02169491 36.02169491 0 0 0-9.79230535 20.98351067c-2.67062843 20.98351188 15.13356341 35.25865804 52.49057255 42.82543976a749.33391633 749.33391633 0 0 1 76.49443713 19.29847209 116.01338429 116.01338429 0 0 1 62.2510845 42.82543975 90.80137802 90.80137802 0 0 1 11.54093207 58.97638524zM766.51453681 698.48959638c-16.91398235 0-32.01575231-15.10176995-45.36889558-47.02214191l-117.63483716-366.03510419h115.63186643l72.26594163 251.16627458 135.40723672-251.16627458h115.63186526L823.42436443 652.29407826c-30.48967858 45.6868277-40.91784821 46.16372587-56.9416211 46.16372465z m243.91742624-6.7083645l60.4070786-406.31708817h107.61998l-61.36087499 406.31708817z m660.8534423-254.34559586a165.32463675 165.32463675 0 0 1-67.59234124 109.14605373 208.56338781 208.56338781 0 0 1-125.42417185 41.1404h-180.55357936l-15.13356338 102.40589581h-106.72977058l31.12554284-207.35524741h297.96586473a67.59234251 67.59234251 0 0 0 39.13742807-12.71727902 52.39519217 52.39519217 0 0 0 20.44302678-31.79319931 35.51300327 35.51300327 0 0 0-9.79230539-34.43203553 54.0484385 54.0484385 0 0 0-35.5765902-12.717279h-296.18544455l85.3965331-105.77597539h217.02037899a159.22034309 159.22034309 0 0 1 115.63186643 40.28198399 126.28258784 126.28258784 0 0 1 30.23533217 111.75309644z" fill="#FFCA7A" p-id="46157"></path></svg>