<?xml version="1.0" standalone="no"?><!DOCTYPE svg PUBLIC "-//W3C//DTD SVG 1.1//EN" "http://www.w3.org/Graphics/SVG/1.1/DTD/svg11.dtd"><svg class="icon" width="200px" height="200.00px" viewBox="0 0 1024 1024" version="1.1" xmlns="http://www.w3.org/2000/svg"><path d="M923.766154 362.338462c9.649231 7.561846 25.757538 26.939077 20.401231 81.84123-6.459077 64.590769-69.789538 341.267692-267.34277 530.747077l-1.063384 1.063385a43.086769 43.086769 0 0 1-26.820923 8.625231c-13.981538 0-31.113846-5.395692-49.388308-17.211077L51.987692 627.2l-3.229538-5.395692c-2.126769-3.229538-13.942154-22.606769-7.483077-43.047385 3.190154-12.918154 12.839385-22.606769 25.757538-29.065846 3.190154-1.102769 302.710154-127.054769 405.779693-356.352l1.102769-2.166154c9.531077-15.714462 26.702769-25.127385 45.056-24.733538 12.918154 0 27.963077 4.292923 42.929231 11.815384l140.681846 72.152616 102.006154-201.334154a33.634462 33.634462 0 0 1 47.222154 0c12.878769 13.981538 11.815385 34.461538 0 47.379692l-92.356924 183.020308 164.233847 82.865231z m-39.739077 48.443076l-11.815385-6.419692c-71.916308-36.627692-307.003077-156.120615-338.156307-171.204923-4.292923-2.126769-8.585846-4.332308-10.752-4.332308a639.803077 639.803077 0 0 1-64.393847 103.384616c73.019077 43.047385 299.52 173.331692 398.296616 222.838154 20.401231-69.947077 26.820923-116.263385 26.820923-116.263385 1.102769-15.044923 1.102769-23.670154 0-27.963077z m-371.436308 430.631385l118.075077 73.255385c4.332308 3.190154 8.585846 5.356308 12.878769 7.483077 102.006154-101.179077 161.083077-222.838154 193.260308-308.972308-102.006154-49.506462-342.488615-189.44-418.658461-233.590154-108.465231 116.263385-242.648615 187.313231-302.788924 215.315692l118.114462 73.216a25.363692 25.363692 0 0 1 9.649231-8.664615l120.241231-82.865231a31.822769 31.822769 0 0 1 25.757538-5.395692c8.585846 1.102769 16.108308 6.459077 21.464615 14.020923a34.737231 34.737231 0 0 1-9.64923 47.379692L293.572923 705.772308l159.980308 99.052307 3.190154-3.229538 105.235692-102.281846c13.942154-12.918154 34.343385-12.918154 47.261538 0 12.839385 14.020923 12.839385 35.524923 0 48.443077l-96.649846 93.656615z" /></svg>