<?xml version="1.0" standalone="no"?><!DOCTYPE svg PUBLIC "-//W3C//DTD SVG 1.1//EN" "http://www.w3.org/Graphics/SVG/1.1/DTD/svg11.dtd"><svg class="icon" width="200px" height="200.00px" viewBox="0 0 1024 1024" version="1.1" xmlns="http://www.w3.org/2000/svg"><path fill="#ee8a36" d="M663.63462 693.76137C663.63462 662.343642 663.628237 631.418189 663.643132 600.490479 663.64739 596.125461 663.734643 591.758187 663.821897 587.390912 663.885739 584.080457 665.418005 582.614912 668.640013 582.669107 676.088516 582.784273 683.541274 582.660075 690.989777 582.660075 751.961092 582.657818 812.934532 582.662332 873.905847 582.66685 882.950455 582.66685 883.176038 582.879117 883.182421 592.390468 883.19945 622.554923 883.256909 652.719377 883.120708 682.883831 883.10368 686.338812 881.937459 689.787017 881.222404 693.702656 883.224986 693.811051 886.436356 694.131708 889.645594 694.136226 922.187038 694.181389 954.73274 694.156548 987.278438 694.183646 999.425882 694.197193 999.464188 694.240098 999.530159 706.797709 999.591876 718.863036 999.476958 730.930624 999.617412 742.993698 999.683388 748.774575 997.761673 751.021444 991.868843 751.945028 978.987191 753.959305 967.199403 759.211776 957.222665 768.727646 948.548352 777.00605 941.563785 786.517402 938.124706 798.237235 936.254067 804.614268 936.202991 811.704879 935.98592 818.497417 935.126153 845.306249 948.27808 863.026001 970.000038 873.92838 976.771793 877.324646 984.992811 877.679177 992.632849 878.815031 997.355196 879.519578 999.625929 881.369007 999.611029 886.682449 999.506752 918.718912 999.587622 950.755379 999.557828 982.789585 999.549312 991.045406 998.744875 991.88544 990.66857 991.9577 980.474765 992.045769 970.278827 991.96899 960.085018 991.96899 821.866351 991.964476 683.649809 991.964476 545.433271 991.950925 535.596992 991.950925 535.139439 991.451874 535.139439 981.073387 535.133056 889.959031 535.135181 798.842419 535.139439 707.728068 535.139439 706.269299 535.135181 704.812787 535.171362 703.358537 535.382046 694.899482 536.229047 694.111386 544.062746 694.118157 581.705348 694.15203 619.345822 694.14074 656.988429 694.111386 659.49751 694.109124 662.008717 693.851695 663.63462 693.76137ZM845.535565 693.684591C845.209958 689.459584 844.677922 685.607168 844.652382 681.752495 844.543846 664.904388 844.354445 648.054025 844.684305 631.214955 844.801353 625.334716 842.951996 623.862396 837.633766 623.889493 795.688055 624.097246 753.74022 624.0295 711.79238 624.015949 700.704751 624.011435 700.691985 623.966272 700.685598 635.952567 700.677086 655.033988 700.685598 674.115409 700.685598 693.684591L845.535565 693.684591Z"  /><path fill="#ee8a36" d="M88.746847 925.938206C79.95059 937.381146 79.017973 937.570039 71.039563 946.08329 62.565295 955.122688 53.248282 963.306249 44.005755 971.487548 40.330451 974.739294 36.052882 977.449079 31.658266 979.431744 30.106849 980.134029 26.595412 978.573645 25.43983 976.902609 24.28212 975.229312 23.979924 971.464964 25.005689 969.791671 27.793557 965.243746 31.083667 960.849374 34.882403 957.231808 48.368449 944.396446 64.842475 928.417289 78.505156 915.791936L88.746847 925.938206ZM83.968916 911.052877C91.861128 897.464265 120.504004 858.762637 133.328197 839.455398 143.321959 824.409306 153.0646 809.171264 163.039209 794.109359 174.837637 776.292506 186.761626 758.572753 198.630282 740.810095 213.565594 718.458863 228.549853 696.146018 243.42132 673.747366 262.659738 644.772962 281.742801 615.683388 301.011013 586.733824 317.187033 562.431543 333.599276 538.309918 349.785936 514.01667 372.505997 479.920768 395.087728 445.720986 417.777995 411.600244 437.716574 381.620959 457.706223 351.677805 477.719287 321.754974 482.084109 315.233418 486.561724 308.78864 491.205333 302.490642 492.088512 301.296077 494.176222 300.137643 495.385007 300.437978 496.651251 300.751861 498.104772 302.675811 498.485713 304.179743 502.350421 319.415524 505.961882 334.721309 509.745719 349.979671 511.95686 358.890356 514.195669 367.796526 516.719646 376.605594 517.883742 380.668017 519.616051 384.043961 525.023663 382.890043 536.854012 380.367683 548.824819 378.597288 560.674321 376.183319 568.542071 374.580027 570.016875 375.433611 569.538039 383.623944 568.427149 402.673751 567.016192 421.707752 565.911684 440.762078 565.437107 449.011123 566.084066 449.571145 574.088013 449.584691 595.4567 449.618564 616.825391 449.568887 638.194082 449.584691 648.119744 449.593724 648.415556 450.248593 644.329519 459.97673 638.506918 473.839552 632.837542 487.776892 626.31904 503.572698L703.296119 503.572698C703.547243 504.293047 703.796233 505.013402 704.045227 505.733751 701.123285 508.493218 698.45885 511.659153 695.232585 513.930859 685.394176 520.863403 675.332314 527.441412 665.370475 534.175232 643.4889 548.959381 621.560512 563.666756 599.757679 578.579622 588.095454 586.550912 576.780113 595.093517 565.079582 602.99255 548.920585 613.901705 532.484932 624.341163 516.285504 635.178052 503.278289 643.88099 490.471121 652.920388 477.52137 661.720422 464.720585 670.425617 451.796369 678.920802 439.033894 687.684706 424.196476 697.87351 409.559104 708.389743 394.679124 718.50854 378.256241 729.677385 361.582236 740.432981 345.155095 751.595051 328.52791 762.892608 312.151845 774.603405 295.51189 785.882897 275.718027 799.303121 255.715605 812.380105 235.88982 825.74839 222.229266 834.957154 208.781527 844.520444 195.110333 853.711142 180.69216 863.403149 166.061173 872.740625 151.63236 882.416828 140.004183 890.216499 128.559027 898.314249 116.996823 906.22231 109.395094 911.422844 101.733777 916.528538 93.817083 921.864559 93.817083 921.864559 81.655807 921.480329 83.968916 911.052877Z"  /><path fill="#ee8a36" d="M690.668685 126.864035C690.668685 163.683276 690.46013 200.507033 690.858091 237.324015 690.930449 244.107517 688.387315 247.847024 683.443639 250.671978 663.085815 262.303741 642.672666 273.822597 622.323354 285.465652 608.286118 293.495656 594.236117 301.494046 580.369135 309.840192 574.159211 313.577441 569.407066 313.866485 562.901329 309.08371 536.216538 289.467105 508.948634 270.737956 481.891418 251.688148 477.852203 248.842871 473.715089 246.14889 469.752486 243.186189 466.59645 240.826416 464.898193 237.777905 464.906705 233.272882 465.019494 159.837635 464.970547 86.404647 465.006724 12.967142 465.010982 6.079764 466.556015 4.623254 473.759782 4.611963 505.916032 4.557767 538.068023 4.573574 570.220015 4.573574 607.077333 4.571316 643.936781 4.573574 680.794099 4.587123 689.093858 4.589381 690.80489 6.429779 690.80489 15.150779 690.802761 52.387778 690.802761 89.624778 690.802761 126.864035L690.668685 126.864035 690.668685 126.864035ZM602.740177 270.261485C605.208823 269.392094 605.981342 269.247572 606.636809 268.872719 623.678985 259.054255 640.810539 249.400636 657.678204 239.259255 663.024102 236.04364 669.576657 234.383895 669.310639 224.495428 668.570044 197.058828 669.138257 169.583839 669.127616 142.122398 669.11485 106.542886 669.023339 70.963373 669.019081 35.38386 669.019081 30.69367 668.391279 27.511927 662.651678 27.53225 606.768755 27.746775 550.887962 27.715161 495.005039 27.794197 487.126652 27.805487 486.69251 28.315831 486.690381 36.67101 486.675486 97.428966 486.790404 158.184665 486.507362 218.940364 486.479697 225.495792 488.75255 229.131424 493.574925 232.439623 505.603191 240.677377 517.376085 249.335149 529.295817 257.758072 542.562662 267.136196 555.83802 276.512061 569.238942 285.67566 570.737156 286.698605 573.471821 287.188625 574.97216 286.436659 581.597073 283.121685 587.981504 279.260238 595.879044 274.791346 592.059025 274.319392 589.639326 273.822597 587.206857 273.761627 582.30787 273.641945 577.400371 273.662268 572.503514 273.804532 567.144849 273.958087 564.439979 271.426694 564.461261 265.657104 564.493184 258.164541 564.593203 250.669719 564.384649 243.186189 564.246319 238.139209 566.225489 235.942023 570.964868 236.034608 578.02179 236.165581 585.08297 236.057189 592.142025 236.06848 602.708258 236.084287 602.71677 236.091062 602.738052 247.045379 602.750818 254.42955 602.740177 261.809205 602.740177 270.261485L602.740177 270.261485Z"  /><path fill="#ee8a36" d="M843.728431 162.661827C869.596015 162.955388 888.768461 175.524286 899.97952 199.939473 907.506765 216.333689 907.310976 234.141511 902.748237 251.74384 898.877141 266.670254 892.535275 280.327584 883.943957 292.828738 883.377873 293.652965 883.01609 294.928823 882.266982 295.274321 874.812096 298.681879 871.462396 291.451263 866.959245 287.921764 865.616388 286.867205 865.527006 282.165723 866.501696 279.943697 871.07933 269.520047 877.712755 259.864171 880.862409 249.034052 887.834206 225.056947 884.231258 199.627848 860.562048 189.233554 843.998703 181.957774 827.356621 184.222705 813.49815 196.315133 802.214733 206.167469 792.48486 218.036339 782.129314 229.080982 758.990007 253.758115 735.906035 278.491703 712.773116 303.175611 678.988838 339.220304 645.183275 375.246931 611.379844 411.271301 605.95095 417.054439 605.044361 417.027341 599.149402 411.165167 597.734187 409.760594 596.244484 408.423765 594.944192 406.908542 591.80518 403.254845 591.73495 399.750187 595.201694 396.078424 635.351253 353.568629 675.481655 311.038511 715.558857 268.451939 736.523196 246.172968 757.647151 224.052068 778.149687 201.301142 786.900612 191.591069 794.64067 180.989025 805.849604 174.047452 817.607595 166.767156 829.967855 162.309555 843.728431 162.661827"  /><path fill="#ee8a36" d="M582.013606 214.036449C579.466219 214.036449 576.918831 214.038707 574.373572 214.036449 566.061043 214.025158 565.311936 213.182866 565.052305 204.60413 564.439398 184.242333 571.306918 167.601978 585.593143 153.761738 596.606289 143.094207 607.240623 131.810199 616.861961 119.740353 629.784047 103.52679 620.071198 75.936635 605.906274 69.383465 595.433681 64.537461 584.639735 62.209302 572.917922 65.953325 563.271049 69.035709 553.70717 72.032282 549.75095 82.632069 546.931162 90.181085 545.692582 98.558846 544.788122 106.694984 543.909197 114.569175 543.064324 116.174724 535.664768 116.206338 529.784708 116.231178 523.906778 116.267308 518.030972 116.195048 510.931486 116.109238 509.371554 114.575949 509.622677 106.877894 510.476062 80.690054 521.738197 61.51379 543.002607 47.78194 562.385741 35.264979 583.107473 34.458818 604.071817 38.026705 624.165747 41.45007 641.178129 53.081834 649.965231 72.57424 661.774302 98.773371 660.148399 118.974838 638.932937 142.430309 631.72704 150.397085 623.397487 157.212201 615.680841 164.670892 604.593212 175.383586 597.404343 188.036036 597.949146 204.658325 598.244958 213.718049 597.755486 214.01161 589.066274 214.000319 586.714675 213.99806 584.363081 214.000319 582.013606 214.000319L582.013606 214.036449"  /></svg>