<?xml version="1.0" standalone="no"?><!DOCTYPE svg PUBLIC "-//W3C//DTD SVG 1.1//EN" "http://www.w3.org/Graphics/SVG/1.1/DTD/svg11.dtd"><svg class="icon" width="200px" height="200.00px" viewBox="0 0 1024 1024" version="1.1" xmlns="http://www.w3.org/2000/svg"><path d="M6.7584 593.92C51.968 872.5248 314.5472 1061.7344 593.152 1016.5248c278.656-45.2352 467.8656-307.7888 422.656-586.4448C970.5984 151.4496 708.0448-37.76 429.3888 7.4496 150.7328 52.736-38.4768 315.2896 6.7328 593.92z" fill="#FF416C" /><path d="M711.9872 432.4864h-41.9072A79.232 79.232 0 0 1 590.848 353.28v-41.9328a79.488 79.488 0 0 0-78.4384-80.4864h-1.024a79.488 79.488 0 0 0-79.488 79.4624v41.9328a79.232 79.232 0 0 1-79.232 79.2064H310.784A79.488 79.488 0 0 0 230.2464 512a79.488 79.488 0 0 0 79.488 79.488h41.9072a79.232 79.232 0 0 1 79.232 79.232v41.9072a79.488 79.488 0 0 0 80.512 80.512 79.488 79.488 0 0 0 79.4624-79.488v-42.9312a79.232 79.232 0 0 1 79.232-79.232h41.9072a79.488 79.488 0 0 0 80.512-78.464V512a79.488 79.488 0 0 0-80.512-79.488z" fill="#FFFFFF" /></svg>