<?xml version="1.0" standalone="no"?><!DOCTYPE svg PUBLIC "-//W3C//DTD SVG 1.1//EN" "http://www.w3.org/Graphics/SVG/1.1/DTD/svg11.dtd"><svg class="icon" width="200px" height="166.78px" viewBox="0 0 1228 1024" version="1.1" xmlns="http://www.w3.org/2000/svg"><path d="M599.9104 563.2a8.96 8.96 0 0 0-8.8576 7.5264l-27.7504 191.0784a8.8064 8.8064 0 0 0 2.1504 7.168l42.1376 47.2064c3.584 4.0448 10.0352 4.0448 13.568 0l42.1888-47.2064a8.8064 8.8064 0 0 0 2.1504-7.168l-27.7504-191.0784a9.0112 9.0112 0 0 0-8.9088-7.5264h150.7328C942.8992 563.2 1075.2 692.1728 1075.2 851.2 1075.2 946.688 995.7888 1024 897.792 1024H331.008C232.96 1024 153.6 946.6368 153.6 851.2 153.6 692.224 286.0032 563.2 449.28 563.2z" fill="#FD9054" /><path d="M789.504 8.192h-173.7728A231.3728 231.3728 0 0 0 385.024 238.848v29.6448a231.424 231.424 0 0 0 230.7072 230.7072 231.424 231.424 0 0 0 230.7072-230.7072V65.0752c0-31.2832-25.6-56.8832-56.9344-56.8832" fill="#FED3BB" /></svg>